<svg preserveAspectRatio="none" width="100%" height="100%" overflow="visible" style="display: block;" viewBox="0 0 23 12" fill="none" xmlns="http://www.w3.org/2000/svg">
<g id="&#231;&#138;&#182;&#230;&#128;&#129;&#230;&#160;&#143;/&#231;&#148;&#181;&#230;&#177;&#160;">
<path id="Vector" d="M16.8 1H3.2C1.98497 1 1 1.98497 1 3.2V8.8C1 10.015 1.98497 11 3.2 11H16.8C18.015 11 19 10.015 19 8.8V3.2C19 1.98497 18.015 1 16.8 1Z" stroke="#171816" stroke-width="1.4"/>
<path id="Vector_2" d="M16 3H4C3.44772 3 3 3.44772 3 4V8C3 8.55228 3.44772 9 4 9H16C16.5523 9 17 8.55228 17 8V4C17 3.44772 16.5523 3 16 3Z" fill="#171816"/>
<path id="Vector_3" d="M22 5C22 4.44772 21.5523 4 21 4C20.4477 4 20 4.44772 20 5V7C20 7.55228 20.4477 8 21 8C21.5523 8 22 7.55228 22 7V5Z" fill="#171816"/>
</g>
</svg>
