<svg preserveAspectRatio="none" width="100%" height="100%" overflow="visible" style="display: block;" viewBox="0 0 28 28" fill="none" xmlns="http://www.w3.org/2000/svg">
<g id="Icon">
<path id="Vector" d="M14 24.5C19.799 24.5 24.5 19.799 24.5 14C24.5 8.20101 19.799 3.5 14 3.5C8.20101 3.5 3.5 8.20101 3.5 14C3.5 19.799 8.20101 24.5 14 24.5Z" stroke="#474846" stroke-width="1.8"/>
<path id="Vector_2" d="M11.2 7.8C8.6 9.3 8.6 12.1 10.1 13.5C7.9 15.4 8.8 19.1 11.7 19.7M16.8 7.8C19.4 9.3 19.4 12.1 17.9 13.5C20.1 15.4 19.2 19.1 16.3 19.7M14 7.3V20.2" stroke="#474846" stroke-width="1.6" stroke-linecap="round"/>
<path id="Vector_3" d="M11 11.5H14H17M11.2 16.2H14H16.8" stroke="#474846" stroke-width="1.4" stroke-linecap="round"/>
</g>
</svg>
